<?xml version="1.0" encoding="UTF-8" standalone="no"?>
<!-- Created with Inkscape (http://www.inkscape.org/) -->

<svg
   width="212.7361mm"
   height="133.81062mm"
   viewBox="0 0 212.7361 133.81062"
   version="1.1"
   id="svg1792"
   xmlns:inkscape="http://www.inkscape.org/namespaces/inkscape"
   xmlns:sodipodi="http://sodipodi.sourceforge.net/DTD/sodipodi-0.dtd"
   xmlns="http://www.w3.org/2000/svg"
   xmlns:svg="http://www.w3.org/2000/svg">
  <sodipodi:namedview
     id="namedview1794"
     pagecolor="#ffffff"
     bordercolor="#000000"
     borderopacity="0.25"
     inkscape:showpageshadow="2"
     inkscape:pageopacity="0.0"
     inkscape:pagecheckerboard="0"
     inkscape:deskcolor="#d1d1d1"
     inkscape:document-units="mm"
     showgrid="false" />
  <defs
     id="defs1789" />
  <g
     inkscape:label="Layer 1"
     inkscape:groupmode="layer"
     id="layer1"
     transform="translate(0.95763852,-81.883878)">
    <g
       id="g840"
       transform="matrix(0.26458333,0,0,0.26458333,-347.92428,-115.31564)">
	<path
   style="fill:#aebcd7"
   d="m 2115.412,1230.489 c 0,11.361 -9.211,20.572 -20.572,20.572 h -762.897 c -11.362,0 -20.573,-9.211 -20.573,-20.572 V 765.894 c 0,-11.362 9.211,-20.572 20.573,-20.572 h 762.897 c 11.361,0 20.572,9.21 20.572,20.572 z"
   id="path706" />

	
		<rect
   x="1270.264"
   y="1007.289"
   transform="matrix(0.4025,-0.9154,0.9154,0.4025,-104.0155,1862.0822)"
   style="fill:#725146"
   width="208.19701"
   height="6.8569999"
   id="rect708" />

	
		<rect
   x="2074.1831"
   y="892.98102"
   transform="matrix(0.9446,-0.3282,0.3282,0.9446,-212.1692,737.1924)"
   style="fill:#725146"
   width="6.8569999"
   height="208.19701"
   id="rect710" />

	<g
   id="g716">
		<path
   style="fill:#3d3d3d"
   d="m 1331.182,1197.732 c 0,11.361 3.98,20.756 -7.382,20.756 h -5.143 c -11.362,0 -20.573,-9.211 -20.573,-20.572 v -96.005 c 0,-11.362 9.211,-20.573 20.573,-20.573 h 5.143 c 11.362,0 7.382,11.06 7.382,22.422 z"
   id="path712" />

		<path
   style="fill:#3d3d3d"
   d="m 2128.698,1197.916 c 0,11.361 -9.21,20.572 -20.572,20.572 h -5.144 c -11.361,0 -7.834,-9.395 -7.834,-20.756 v -93.973 c 0,-11.362 -3.527,-22.422 7.834,-22.422 h 5.144 c 11.362,0 20.572,9.211 20.572,20.573 z"
   id="path714" />

	</g>

	<path
   style="fill:#545454"
   d="m 2094.84,745.321 h -762.897 c -11.362,0 -20.573,9.211 -20.573,20.573 v 464.596 c 0,11.361 9.211,20.572 20.573,20.572 h 762.897 c 11.361,0 20.572,-9.211 20.572,-20.572 V 765.894 c 0,-11.362 -9.211,-20.573 -20.572,-20.573 z m -4.77,452.411 -374.645,4.757 v 0.039 l -1.539,-0.021 -1.538,0.021 v -0.039 l -374.645,-4.757 -0.32,-392.274 32.562,-35.798 342.403,-0.082 v 0 h 1.538 1.539 v 0 l 342.403,0.082 32.562,35.798 z"
   id="path718"
   inkscape:export-filename="logo.svg"
   inkscape:export-xdpi="96"
   inkscape:export-ydpi="96" />

	<path
   style="fill:#969696"
   d="m 1903.084,865.327 c -44.816,0 -81.146,36.331 -81.146,81.147 0,44.816 36.33,81.147 81.146,81.147 44.816,0 81.146,-36.331 81.146,-81.147 0,-44.816 -36.33,-81.147 -81.146,-81.147 z m 0,131.742 c -27.943,0 -50.595,-22.652 -50.595,-50.595 0,-27.943 22.651,-50.595 50.595,-50.595 27.942,0 50.595,22.652 50.595,50.595 0,27.943 -22.653,50.595 -50.595,50.595 z"
   id="path720" />

	<g
   id="g724">
		<path
   style="fill:#725146"
   d="m 1903.084,795.461 c -83.402,0 -151.014,67.611 -151.014,151.013 0,83.403 67.611,151.013 151.014,151.013 83.403,0 151.014,-67.61 151.014,-151.013 0,-83.402 -67.612,-151.013 -151.014,-151.013 z m 0,232.16 c -44.816,0 -81.146,-36.331 -81.146,-81.147 0,-44.816 36.33,-81.147 81.146,-81.147 44.816,0 81.146,36.331 81.146,81.147 0,44.816 -36.33,81.147 -81.146,81.147 z"
   id="path722" />

	</g>

	<path
   style="fill:#969696"
   d="m 1523.096,865.327 c -44.816,0 -81.147,36.331 -81.147,81.147 0,44.816 36.331,81.147 81.147,81.147 44.816,0 81.147,-36.331 81.147,-81.147 0,-44.816 -36.33,-81.147 -81.147,-81.147 z m 0,131.742 c -27.942,0 -50.595,-22.652 -50.595,-50.595 0,-27.943 22.652,-50.595 50.595,-50.595 27.943,0 50.595,22.652 50.595,50.595 0,27.943 -22.652,50.595 -50.595,50.595 z"
   id="path726" />

	<path
   style="fill:#725146"
   d="m 1523.097,828.183 c -65.331,0 -118.292,52.961 -118.292,118.292 0,65.331 52.961,118.292 118.292,118.292 65.331,0 118.292,-52.961 118.292,-118.292 0,-65.331 -52.962,-118.292 -118.292,-118.292 z m 0,192.046 c -40.733,0 -73.755,-33.021 -73.755,-73.754 0,-40.733 33.021,-73.754 73.755,-73.754 40.734,0 73.754,33.021 73.754,73.754 0,40.733 -33.021,73.754 -73.754,73.754 z"
   id="path728" />

	<g
   id="g736">
		<polygon
   style="fill:#545454"
   points="1713.391,1251.062 1997.12,1251.062 1966.262,1136.198 1713.391,1136.198 1460.521,1136.198 1429.662,1251.062 "
   id="polygon730" />

		<polygon
   style="fill:#3d3d3d"
   points="1984.548,1251.062 1997.12,1251.062 1966.262,1136.198 1953.689,1136.198 "
   id="polygon732" />

		<polygon
   style="fill:#7c7c7c"
   points="1957.834,1151.628 1966.262,1136.198 1713.391,1136.198 1460.521,1136.198 1429.662,1251.062 1446.306,1251.062 1472.593,1149.913 1730.535,1151.628 "
   id="polygon734" />

	</g>

	<g
   id="g746">
		<path
   style="fill:#232323"
   d="m 1352.886,769.577 c 0,8.485 -6.878,15.363 -15.363,15.363 -8.485,0 -15.364,-6.878 -15.364,-15.363 0,-8.485 6.878,-15.364 15.364,-15.364 8.485,0 15.363,6.879 15.363,15.364 z"
   id="path738" />

		<g
   id="g744">
			
				<circle
   transform="matrix(0.2298,-0.9732,0.9732,0.2298,281.2338,1894.5082)"
   style="fill:#626262"
   cx="1337.5229"
   cy="769.57703"
   id="ellipse740"
   r="13.047" />

			<path
   style="fill:#232323"
   d="m 1340.47,769.66 3.49,-3.49 c 0.726,-0.726 0.726,-1.901 0,-2.626 -0.725,-0.726 -1.901,-0.726 -2.626,0 l -3.491,3.49 -3.49,-3.49 c -0.725,-0.726 -1.901,-0.726 -2.627,0 -0.725,0.725 -0.725,1.901 0,2.626 l 3.491,3.49 -3.491,3.491 c -0.725,0.726 -0.725,1.901 0,2.627 0.726,0.725 1.902,0.725 2.627,0 l 3.49,-3.491 3.491,3.491 c 0.725,0.725 1.901,0.725 2.626,0 0.726,-0.725 0.726,-1.901 0,-2.627 z"
   id="path742" />

		</g>

	</g>

	<g
   id="g756">
		<path
   style="fill:#232323"
   d="m 2110.192,769.577 c 0,8.485 -6.879,15.363 -15.364,15.363 -8.484,0 -15.363,-6.878 -15.363,-15.363 0,-8.485 6.879,-15.364 15.363,-15.364 8.485,0 15.364,6.879 15.364,15.364 z"
   id="path748" />

		<g
   id="g754">
			
				<circle
   transform="matrix(0.2298,-0.9732,0.9732,0.2298,864.5465,2631.5549)"
   style="fill:#626262"
   cx="2094.8279"
   cy="769.57703"
   id="ellipse750"
   r="13.047" />

			<path
   style="fill:#232323"
   d="m 2097.775,769.66 3.49,-3.49 c 0.726,-0.726 0.726,-1.901 0,-2.626 -0.725,-0.726 -1.9,-0.726 -2.626,0 l -3.491,3.49 -3.49,-3.49 c -0.725,-0.726 -1.901,-0.726 -2.627,0 -0.725,0.725 -0.725,1.901 0,2.626 l 3.491,3.49 -3.491,3.491 c -0.725,0.726 -0.725,1.901 0,2.627 0.726,0.725 1.902,0.725 2.627,0 l 3.49,-3.491 3.491,3.491 c 0.726,0.725 1.901,0.725 2.626,0 0.726,-0.725 0.726,-1.901 0,-2.627 z"
   id="path752" />

		</g>

	</g>

	<g
   id="g766">
		<path
   style="fill:#232323"
   d="m 1351.033,1226.978 c 0,8.485 -6.879,15.363 -15.364,15.363 -8.485,0 -15.363,-6.878 -15.363,-15.363 0,-8.485 6.878,-15.363 15.363,-15.363 8.485,0 15.364,6.877 15.364,15.363 z"
   id="path758" />

		<g
   id="g764">
			
				<circle
   transform="matrix(0.2298,-0.9732,0.9732,0.2298,-165.3584,2245.0159)"
   style="fill:#626262"
   cx="1335.6689"
   cy="1226.978"
   id="ellipse760"
   r="13.047" />

			<path
   style="fill:#232323"
   d="m 1338.616,1227.061 3.491,-3.491 c 0.725,-0.725 0.725,-1.901 0,-2.626 -0.726,-0.726 -1.901,-0.726 -2.626,0 l -3.491,3.49 -3.491,-3.49 c -0.725,-0.726 -1.901,-0.726 -2.626,0 -0.726,0.725 -0.726,1.901 0,2.626 l 3.491,3.491 -3.491,3.49 c -0.726,0.726 -0.726,1.901 0,2.627 0.725,0.725 1.901,0.725 2.626,0 l 3.491,-3.491 3.491,3.491 c 0.725,0.725 1.901,0.725 2.626,0 0.725,-0.726 0.725,-1.901 0,-2.627 z"
   id="path762" />

		</g>

	</g>

	<g
   id="g776">
		<path
   style="fill:#232323"
   d="m 1728.755,1178.267 c 0,8.484 -6.879,15.363 -15.364,15.363 -8.484,0 -15.363,-6.879 -15.363,-15.363 0,-8.485 6.879,-15.364 15.363,-15.364 8.485,-10e-4 15.364,6.878 15.364,15.364 z"
   id="path768" />

		<g
   id="g774">
			<path
   style="fill:#626262"
   d="m 1726.438,1178.267 c 0,7.205 -5.841,13.047 -13.047,13.047 -7.205,0 -13.046,-5.842 -13.046,-13.047 0,-7.206 5.841,-13.047 13.046,-13.047 7.206,0 13.047,5.841 13.047,13.047 z"
   id="path770" />

			<path
   style="fill:#232323"
   d="m 1716.338,1178.35 3.49,-3.491 c 0.726,-0.726 0.726,-1.901 0,-2.626 -0.725,-0.726 -1.901,-0.726 -2.626,0 l -3.49,3.49 -3.491,-3.49 c -0.725,-0.726 -1.901,-0.726 -2.627,0 -0.725,0.725 -0.725,1.9 0,2.626 l 3.491,3.491 -3.491,3.49 c -0.725,0.726 -0.725,1.901 0,2.627 0.726,0.725 1.902,0.725 2.627,0 l 3.491,-3.491 3.49,3.491 c 0.725,0.725 1.901,0.725 2.626,0 0.726,-0.726 0.726,-1.901 0,-2.627 z"
   id="path772" />

		</g>

	</g>

	<g
   id="g786">
		<path
   style="fill:#232323"
   d="m 2108.339,1226.978 c 0,8.485 -6.878,15.363 -15.364,15.363 -8.484,0 -15.363,-6.878 -15.363,-15.363 0,-8.485 6.879,-15.363 15.363,-15.363 8.486,-10e-4 15.364,6.877 15.364,15.363 z"
   id="path778" />

		<g
   id="g784">
			<path
   style="fill:#626262"
   d="m 2106.021,1226.978 c 0,7.206 -5.841,13.047 -13.047,13.047 -7.205,0 -13.046,-5.841 -13.046,-13.047 0,-7.206 5.841,-13.047 13.046,-13.047 7.207,0 13.047,5.84 13.047,13.047 z"
   id="path780" />

			<path
   style="fill:#232323"
   d="m 2095.922,1227.061 3.491,-3.491 c 0.726,-0.725 0.726,-1.901 0,-2.626 -0.726,-0.726 -1.901,-0.726 -2.627,0 l -3.49,3.49 -3.491,-3.49 c -0.725,-0.726 -1.901,-0.726 -2.626,0 -0.726,0.725 -0.726,1.901 0,2.626 l 3.49,3.491 -3.49,3.49 c -0.726,0.726 -0.726,1.901 0,2.627 0.725,0.725 1.901,0.725 2.626,0 l 3.491,-3.491 3.49,3.491 c 0.726,0.725 1.901,0.725 2.627,0 0.726,-0.726 0.726,-1.901 0,-2.627 z"
   id="path782" />

		</g>

	</g>

	<path
   style="fill:#969696"
   d="m 1546.548,901.643 c -24.76,-12.952 -55.331,-3.38 -68.283,21.38 -12.952,24.76 -3.38,55.331 21.379,68.283 24.76,12.952 55.331,3.38 68.283,-21.38 12.953,-24.759 3.381,-55.331 -21.379,-68.283 z m -37.692,82.532 7.164,-13.694 -8.608,-4.504 -7.164,13.695 c -9.272,-6.366 -15.19,-16.118 -16.93,-26.68 l 15.286,-0.636 -0.405,-9.707 -15.293,0.637 c 0.415,-5.26 1.873,-10.525 4.473,-15.497 2.95,-5.639 7.051,-10.285 11.859,-13.809 l 7.649,12.06 8.204,-5.204 -7.37,-11.619 c 9.227,-3.802 19.798,-4.167 29.614,-0.446 l -7.012,13.404 8.608,4.504 7.012,-13.404 c 9.273,6.365 15.19,16.117 16.93,26.679 l -15.286,0.637 0.405,9.707 15.293,-0.637 c -0.415,5.26 -1.873,10.525 -4.473,15.497 -2.25,4.301 -5.168,8.026 -8.56,11.116 l -8.685,-13.694 -8.204,5.203 8.957,14.122 c -10.051,5.443 -22.252,6.521 -33.464,2.27 z"
   id="path788" />

	<path
   style="fill:#969696"
   d="m 1926.536,901.643 c -24.76,-12.952 -55.331,-3.38 -68.283,21.38 -12.952,24.76 -3.381,55.331 21.379,68.283 24.76,12.952 55.331,3.38 68.283,-21.38 12.952,-24.759 3.381,-55.331 -21.379,-68.283 z m -37.692,82.532 7.164,-13.694 -8.608,-4.504 -7.164,13.695 c -9.272,-6.366 -15.189,-16.118 -16.929,-26.68 l 15.285,-0.636 -0.404,-9.707 -15.293,0.637 c 0.414,-5.26 1.872,-10.525 4.473,-15.497 2.95,-5.639 7.051,-10.285 11.859,-13.809 l 7.649,12.06 8.204,-5.204 -7.37,-11.619 c 9.228,-3.802 19.798,-4.167 29.614,-0.446 l -7.012,13.404 8.607,4.504 7.012,-13.404 c 9.273,6.365 15.19,16.117 16.93,26.679 l -15.285,0.637 0.404,9.707 15.293,-0.637 c -0.414,5.26 -1.872,10.525 -4.473,15.497 -2.25,4.301 -5.168,8.026 -8.56,11.116 l -8.686,-13.694 -8.204,5.203 8.957,14.122 c -10.051,5.443 -22.25,6.521 -33.463,2.27 z"
   id="path790" />

	<g
   id="g796">
		<path
   style="fill:#ffffff"
   d="m 1519.183,1226.978 c 0,7.308 -5.924,13.231 -13.232,13.231 -7.307,0 -13.231,-5.924 -13.231,-13.231 0,-7.307 5.924,-13.231 13.231,-13.231 7.307,-10e-4 13.232,5.923 13.232,13.231 z"
   id="path792" />

		<path
   style="fill:#ffffff"
   d="m 1587.098,1207.168 c 0,7.308 -5.924,13.231 -13.231,13.231 -7.307,0 -13.231,-5.924 -13.231,-13.231 0,-7.307 5.923,-13.231 13.231,-13.231 7.308,0 13.231,5.923 13.231,13.231 z"
   id="path794" />

	</g>

	<g
   id="g802">
		
			<circle
   transform="matrix(0.9732,-0.2298,0.2298,0.9732,-230.3577,475.5058)"
   style="fill:#ffffff"
   cx="1926.785"
   cy="1226.978"
   id="ellipse798"
   r="13.231" />

		<path
   style="fill:#ffffff"
   d="m 1845.638,1207.168 c 0,7.308 5.925,13.231 13.231,13.231 7.308,0 13.232,-5.924 13.232,-13.231 0,-7.307 -5.925,-13.231 -13.232,-13.231 -7.306,0 -13.231,5.923 -13.231,13.231 z"
   id="path800" />

	</g>

	<g
   id="g812">
		<g
   id="g808">
			<path
   style="fill:#ffffff"
   d="m 2058.729,1103.605 c 0,10.56 -8.416,19.12 -18.798,19.12 h -652.44 c -10.382,0 -18.798,-8.561 -18.798,-19.12 v -35.055 c 0,-10.56 8.416,-19.12 18.798,-19.12 h 652.44 c 10.382,0 18.798,8.561 18.798,19.12 z"
   id="path804" />

			<path
   style="fill:#e55c3c"
   d="m 1368.986,1106.862 h 689.45 c -1.522,9.005 -9.218,15.863 -18.505,15.863 h -652.44 c -9.287,0 -16.983,-6.858 -18.505,-15.863 z"
   id="path806" />

		</g>

		<path
   style="fill:#e55c3c"
   d="m 1368.986,1065.294 h 689.45 c -1.522,-9.005 -9.218,-15.863 -18.505,-15.863 h -652.44 c -9.287,0 -16.983,6.858 -18.505,15.863 z"
   id="path810" />

	</g>

	<g
   id="g828">
		<rect
   x="1594.225"
   y="945.33099"
   style="fill:#232323"
   width="233.246"
   height="4.5149999"
   id="rect814" />

		<g
   id="g826">
			<rect
   x="1709.54"
   y="906.77502"
   style="fill:#232323"
   width="2.615"
   height="72.540001"
   id="rect816" />

			<rect
   x="1672.9091"
   y="906.77502"
   style="fill:#232323"
   width="2.615"
   height="72.540001"
   id="rect818" />

			<rect
   x="1636.278"
   y="906.77502"
   style="fill:#232323"
   width="2.615"
   height="72.540001"
   id="rect820" />

			<rect
   x="1746.171"
   y="906.77502"
   style="fill:#232323"
   width="2.615"
   height="72.540001"
   id="rect822" />

			<rect
   x="1782.803"
   y="906.77502"
   style="fill:#232323"
   width="2.6140001"
   height="72.540001"
   id="rect824" />

		</g>

	</g>

	<g
   id="g834">
		<path
   style="fill:#545454"
   d="m 1396.202,798.024 c -0.06,-3.329 -0.774,-5.684 -2.152,-7.06 -1.38,-1.377 -3.704,-2.067 -6.976,-2.067 -4.937,0 -8.9,1.539 -11.886,4.608 -2.985,3.073 -5.396,6.416 -7.232,10.032 -0.575,1.265 -1.118,2.484 -1.636,3.658 -0.515,1.177 -0.978,2.313 -1.377,3.402 1.034,-0.862 2.05,-1.65 3.056,-2.369 1.005,-0.715 1.993,-1.335 2.971,-1.85 2.008,-1.09 4.033,-1.878 6.072,-2.369 2.036,-0.487 4.205,-0.732 6.5,-0.732 5.512,0 9.832,1.293 12.961,3.875 3.129,2.582 4.664,6.086 4.608,10.505 0,0.806 -0.06,1.636 -0.171,2.498 -0.116,0.862 -0.291,1.752 -0.519,2.67 -1.72,6.602 -5.238,11.928 -10.546,15.975 -5.312,4.047 -11.469,6.069 -18.473,6.069 -6.086,0 -10.694,-1.489 -13.82,-4.475 -3.132,-2.985 -4.695,-7.379 -4.695,-13.178 0,-1.776 0.158,-3.672 0.473,-5.684 0.315,-2.008 0.76,-4.159 1.335,-6.458 2.87,-11.136 7.264,-19.604 13.175,-25.404 5.915,-5.795 13.119,-8.696 21.616,-8.696 3.732,0 6.847,0.561 9.345,1.678 2.495,1.121 4.316,2.859 5.466,5.211 0.172,0.287 0.33,0.574 0.473,0.862 0.144,0.287 0.273,0.575 0.389,0.862 0.228,0.575 0.4,1.191 0.515,1.85 0.116,0.662 0.172,1.394 0.172,2.197 0,0.574 -0.028,1.219 -0.084,1.938 -0.06,0.718 -0.144,1.535 -0.26,2.453 h -9.3 z m -33.799,27.685 c -0.088,0.603 -0.13,1.195 -0.13,1.766 0.056,2.873 1.062,5.182 3.013,6.934 1.952,1.749 4.65,2.625 8.094,2.625 4.019,0 7.621,-1.248 10.81,-3.746 3.185,-2.498 5.267,-5.669 6.24,-9.517 0.172,-0.631 0.288,-1.233 0.347,-1.808 0.056,-0.571 0.084,-1.146 0.084,-1.721 0,-2.698 -0.918,-4.881 -2.754,-6.545 -1.839,-1.665 -4.422,-2.499 -7.751,-2.499 -4.19,0 -7.922,1.177 -11.195,3.532 -3.272,2.354 -5.396,5.396 -6.374,9.128 -0.17,0.632 -0.3,1.248 -0.384,1.851 z"
   id="path830" />

		<path
   style="fill:#545454"
   d="m 1422.552,789.37 c 5.627,-5.596 12.428,-8.395 20.41,-8.395 5.795,0 10.161,1.506 13.087,4.519 2.93,3.014 4.394,7.422 4.394,13.221 0,1.892 -0.161,3.918 -0.477,6.069 -0.315,2.155 -0.788,4.436 -1.419,6.847 -2.758,10.68 -6.99,18.89 -12.702,24.629 -5.715,5.74 -12.415,8.609 -20.109,8.609 -5.911,0 -10.361,-1.475 -13.346,-4.433 -2.985,-2.957 -4.478,-7.362 -4.478,-13.22 0,-1.948 0.171,-4.03 0.519,-6.241 0.343,-2.211 0.831,-4.551 1.461,-7.018 2.813,-10.792 7.032,-18.988 12.66,-24.587 z m -4.307,31.045 c -0.344,2.067 -0.515,3.932 -0.515,5.596 0,3.735 0.844,6.503 2.541,8.311 1.692,1.808 4.205,2.712 7.533,2.712 4.766,0 8.914,-2.095 12.442,-6.286 3.532,-4.19 6.36,-10.421 8.483,-18.687 0.63,-2.354 1.09,-4.534 1.377,-6.545 0.287,-2.008 0.431,-3.815 0.431,-5.424 0,-3.731 -0.816,-6.531 -2.453,-8.396 -1.636,-1.864 -4.121,-2.8 -7.449,-2.8 -4.881,0 -9.058,2.054 -12.53,6.157 -3.473,4.107 -6.272,10.291 -8.396,18.557 -0.63,2.47 -1.117,4.737 -1.464,6.805 z"
   id="path832" />

	</g>

	<path
   style="fill:#e55c3c"
   d="m 1460.443,1099.657 c 0,12.74 -8.165,23.068 -18.236,23.068 h -55.277 c -10.072,0 -18.236,-10.328 -18.236,-23.068 V 1072.5 c 0,-12.741 8.165,-23.069 18.236,-23.069 h 55.277 c 10.071,0 18.236,10.328 18.236,23.069 z"
   id="path836" />

	<path
   d="m 1407.146,1057.925 h 15.473 l 12.598,56.308 h -13.781 l -1.775,-11.16 h -10.148 l -1.775,11.16 h -13.527 z m 10.74,34.917 -3.468,-24.94 -3.722,24.94 z"
   id="path838" />

</g>
  </g>
</svg>
